<svg width="38" height="34" viewBox="0 0 38 34" fill="none" xmlns="http://www.w3.org/2000/svg">
<path fill-rule="evenodd" clip-rule="evenodd" d="M31.2678 5.26861C34.4609 7.62604 34.9122 12.0462 32.2556 14.942L19.0001 29.3911L5.74477 14.9436C3.08767 12.0475 3.53898 7.62673 6.73245 5.269C10.0009 2.85594 14.7458 3.62566 16.9849 6.93215L17.736 8.04142C18.1857 8.70552 19.1174 8.89777 19.8169 8.47082C20.036 8.33708 20.2063 8.15845 20.3231 7.95576L21.0156 6.9327C23.2541 3.62568 27.9993 2.85545 31.2678 5.26861ZM19.0004 4.69051C15.6348 0.565893 9.31051 -0.25619 4.88378 3.01206C0.325463 6.37746 -0.318738 12.6876 3.47398 16.8214L17.8672 32.5093C18.4134 33.1046 19.3645 33.1668 19.9916 32.6483C20.0731 32.5809 20.1451 32.507 20.2075 32.4282L34.5265 16.8198C38.3186 12.6862 37.6744 6.37673 33.1165 3.01167C28.6898 -0.256565 22.3655 0.565817 19.0004 4.69051Z" fill="#F58A07" stroke="#F58A07" stroke-width="2" stroke-linecap="round" stroke-linejoin="round"/>
</svg>
