<svg width="22" height="20" viewBox="0 0 22 20" fill="none" xmlns="http://www.w3.org/2000/svg">
<path d="M20.4541 2.50008C19.6025 3.06298 18.6596 3.4935 17.6617 3.77508C17.1262 3.198 16.4144 2.78899 15.6226 2.60335C14.8309 2.41771 13.9974 2.46441 13.2349 2.73712C12.4724 3.00984 11.8177 3.49541 11.3593 4.12818C10.9009 4.76094 10.6609 5.51036 10.6719 6.27508V7.10841C9.10907 7.14639 7.56049 6.82159 6.16406 6.16295C4.76763 5.50431 3.56671 4.53228 2.66824 3.33341C2.66824 3.33341 -0.88894 10.8334 7.11471 14.1667C5.28323 15.3317 3.10146 15.9159 0.889648 15.8334C8.8933 20.0001 18.6755 15.8334 18.6755 6.25008C18.6747 6.01796 18.6509 5.78641 18.6044 5.55841C19.512 4.71966 20.1525 3.66067 20.4541 2.50008Z" fill="white"/>
</svg>
