<svg width="22" height="20" viewBox="0 0 22 20" fill="none" xmlns="http://www.w3.org/2000/svg">
<path fill-rule="evenodd" clip-rule="evenodd" d="M19.4209 4.29942C19.7238 4.59206 19.9389 4.95443 20.0446 5.34992C20.3267 6.8155 20.4636 8.30238 20.4537 9.79158C20.4593 11.2585 20.3224 12.7229 20.0446 14.1666C19.9389 14.5621 19.7238 14.9244 19.4209 15.2171C19.118 15.5097 18.738 15.7223 18.3194 15.8333C16.7898 16.2166 10.6714 16.2166 10.6714 16.2166C10.6714 16.2166 4.55307 16.2166 3.02349 15.8333C2.61336 15.7281 2.23911 15.5256 1.9369 15.2453C1.63468 14.965 1.41472 14.6165 1.29826 14.2333C1.01614 12.7677 0.879202 11.2808 0.88918 9.79158C0.881386 8.31351 1.01832 6.83788 1.29826 5.38325C1.40389 4.98776 1.61904 4.6254 1.92196 4.33276C2.22488 4.04012 2.60485 3.82757 3.02349 3.71659C4.55307 3.33325 10.6714 3.33325 10.6714 3.33325C10.6714 3.33325 16.7898 3.33325 18.3194 3.68325C18.738 3.79424 19.118 4.00679 19.4209 4.29942ZM13.7843 9.79161L8.67087 12.5166V7.06661L13.7843 9.79161Z" fill="white"/>
</svg>
